<?xml version="1.0" standalone="no"?>
<!DOCTYPE svg PUBLIC "-//W3C//DTD SVG 20010904//EN"
 "http://www.w3.org/TR/2001/REC-SVG-20010904/DTD/svg10.dtd">
<svg version="1.0" xmlns="http://www.w3.org/2000/svg"
 width="48.000000pt" height="48.000000pt" viewBox="0 0 48.000000 48.000000"
 preserveAspectRatio="xMidYMid meet">

<g transform="translate(0.000000,48.000000) scale(0.100000,-0.100000)"
fill="#000000" stroke="none">
<path d="M136 459 c-32 -31 -48 -70 -35 -85 7 -9 8 -26 4 -46 -4 -18 -8 -57
-9 -85 -1 -45 -3 -52 -19 -47 -11 3 -17 0 -17 -10 0 -10 -9 -16 -25 -16 -14 0
-25 -4 -25 -10 0 -5 16 -10 35 -10 28 0 35 -4 35 -19 0 -30 19 -35 26 -6 4 18
13 25 30 25 13 0 24 6 25 13 1 6 4 1 8 -12 8 -28 31 -41 31 -17 0 10 9 16 25
16 14 0 25 5 25 10 0 6 -16 10 -35 10 -28 0 -35 4 -35 20 0 26 -14 25 -33 -3
-19 -29 -26 -21 -34 42 -6 50 -5 51 20 51 26 0 57 23 57 43 0 6 9 30 21 53 24
51 75 76 96 48 11 -15 8 -20 -17 -35 -40 -25 -56 -85 -36 -134 8 -19 16 -35
18 -35 2 0 1 27 0 61 -2 34 1 66 6 71 14 14 49 -7 72 -45 21 -34 28 -127 10
-127 -5 0 -10 -11 -10 -25 0 -20 -5 -25 -24 -25 -16 0 -27 -7 -31 -20 -10 -33
4 -60 31 -60 19 0 24 -5 24 -25 0 -22 4 -25 35 -25 30 0 35 3 35 24 0 19 6 25
28 28 24 3 27 7 27 38 0 31 -3 35 -27 38 -22 3 -28 9 -28 28 0 13 -4 24 -9 24
-5 0 -12 21 -16 48 -9 64 -28 105 -58 128 -21 17 -23 22 -10 30 14 8 13 14 -1
48 -12 30 -20 37 -33 31 -40 -16 -53 -17 -53 -3 0 23 -80 20 -104 -3z m58 -5
c26 -10 17 -53 -22 -104 -1 -2 -7 2 -12 10 -15 24 -12 67 6 74 8 3 12 10 9 16
-7 12 -3 12 19 4z m-64 -60 c0 -8 -5 -12 -10 -9 -6 4 -8 11 -5 16 9 14 15 11
15 -7z m36 -79 c-10 -26 -31 -11 -34 24 l-3 33 22 -20 c13 -13 19 -27 15 -37z
m236 -177 c2 -17 11 -24 31 -26 19 -2 27 -9 27 -22 0 -13 -8 -20 -27 -22 -20
-2 -29 -9 -31 -25 -4 -30 -30 -30 -34 -1 -2 17 -11 24 -30 26 -39 5 -39 39 0
44 19 2 28 9 30 26 2 12 10 22 17 22 7 0 15 -10 17 -22z"/>
<path d="M130 125 c0 -38 148 -116 189 -99 11 4 2 10 -32 19 -53 15 -125 58
-134 80 -7 19 -23 19 -23 0z"/>
</g>
</svg>
