<?xml version="1.0" standalone="no"?>
<!DOCTYPE svg PUBLIC "-//W3C//DTD SVG 20010904//EN"
 "http://www.w3.org/TR/2001/REC-SVG-20010904/DTD/svg10.dtd">
<svg version="1.0" xmlns="http://www.w3.org/2000/svg"
 width="48.000000pt" height="48.000000pt" viewBox="0 0 48.000000 48.000000"
 preserveAspectRatio="xMidYMid meet">

<g transform="translate(0.000000,48.000000) scale(0.100000,-0.100000)"
fill="#000000" stroke="none">
<path d="M190 405 c0 -32 -4 -55 -11 -55 -6 0 -30 11 -53 25 l-43 25 -26 -49
c-15 -27 -27 -51 -27 -54 0 -4 20 -18 45 -33 l45 -26 -45 -29 c-25 -16 -45
-32 -45 -35 0 -12 50 -94 57 -94 3 0 26 11 50 25 23 14 44 23 44 20 1 -3 3 -9
4 -15 1 -5 3 -28 4 -50 l1 -40 58 0 57 0 -1 43 c0 67 3 70 50 42 24 -14 45
-25 48 -25 4 0 18 21 34 47 l27 47 -29 23 c-16 12 -34 23 -41 23 -29 0 -19 20
22 44 25 15 45 29 45 33 0 3 -12 27 -27 54 l-26 49 -45 -25 c-25 -14 -47 -23
-50 -20 -3 3 -6 27 -6 53 l-1 47 -57 3 -58 3 0 -56z m70 -4 c0 -10 7 -21 15
-25 8 -3 15 -10 15 -16 0 -5 -7 -10 -15 -10 -9 0 -15 -9 -15 -25 0 -14 4 -25
9 -25 17 0 21 -33 6 -50 -20 -22 -19 -70 2 -85 17 -13 17 -14 0 -32 -9 -11
-17 -30 -18 -44 0 -13 -4 -33 -9 -44 -8 -18 -9 -18 -9 5 -1 15 -7 32 -13 38
-10 10 -10 17 0 32 16 26 15 45 -3 60 -19 16 -19 44 0 60 17 14 12 45 -13 73
-13 15 -14 21 -4 35 7 9 17 29 23 45 13 31 29 36 29 8z"/>
</g>
</svg>
