<?xml version="1.0" standalone="no"?>
<!DOCTYPE svg PUBLIC "-//W3C//DTD SVG 20010904//EN"
 "http://www.w3.org/TR/2001/REC-SVG-20010904/DTD/svg10.dtd">
<svg version="1.0" xmlns="http://www.w3.org/2000/svg"
 width="48.000000pt" height="48.000000pt" viewBox="0 0 48.000000 48.000000"
 preserveAspectRatio="xMidYMid meet">

<g transform="translate(0.000000,48.000000) scale(0.100000,-0.100000)"
fill="#000000" stroke="none">
<path d="M200 471 c-133 -26 -221 -158 -189 -284 13 -52 66 -120 113 -144 42
-22 123 -43 166 -43 46 0 119 34 147 68 33 40 28 45 -16 16 -23 -15 -49 -24
-63 -22 -22 3 -22 4 7 21 l30 18 -46 -5 c-43 -5 -47 -4 -42 14 3 11 -1 35 -8
53 -8 17 -12 39 -11 47 1 9 -9 27 -23 40 -28 27 -32 40 -10 40 22 0 55 37 55
60 0 12 -13 28 -32 40 -39 24 -58 12 -58 -35 0 -29 -4 -35 -34 -45 -24 -8 -44
-26 -65 -59 -17 -26 -31 -53 -31 -59 0 -5 19 -17 43 -24 46 -16 57 -40 33 -73
-13 -19 -15 -18 -54 21 -134 133 -10 345 178 303 95 -21 150 -94 150 -201 1
-63 1 -63 16 -34 26 47 15 146 -22 198 -47 68 -147 105 -234 89z m-26 -283
c-3 -4 -14 -3 -25 3 -17 9 -18 13 -8 26 12 13 14 13 26 -3 7 -9 10 -21 7 -26z"/>
<path d="M324 209 c-10 -17 13 -36 27 -22 12 12 4 33 -11 33 -5 0 -12 -5 -16
-11z"/>
<path d="M347 154 c-8 -8 1 -24 14 -24 5 0 9 7 9 15 0 15 -12 20 -23 9z"/>
</g>
</svg>
