<?xml version="1.0" standalone="no"?>
<!DOCTYPE svg PUBLIC "-//W3C//DTD SVG 20010904//EN"
 "http://www.w3.org/TR/2001/REC-SVG-20010904/DTD/svg10.dtd">
<svg version="1.0" xmlns="http://www.w3.org/2000/svg"
 width="48.000000pt" height="48.000000pt" viewBox="0 0 48.000000 48.000000"
 preserveAspectRatio="xMidYMid meet">

<g transform="translate(0.000000,48.000000) scale(0.100000,-0.100000)"
fill="#000000" stroke="none">
<path d="M158 393 l-3 -68 -73 -3 -73 -3 3 -67 3 -67 83 -3 83 -3 28 63 29 63
27 -62 28 -63 83 0 84 0 0 70 0 70 -56 0 c-83 0 -94 9 -94 80 l0 60 -75 0 -74
0 -3 -67z"/>
<path d="M202 161 c-17 -39 -32 -79 -32 -90 0 -29 35 -61 65 -61 28 0 75 40
75 63 0 13 -67 157 -73 157 -1 0 -17 -31 -35 -69z m27 -129 c-14 -5 -39 6 -39
17 0 5 11 4 25 -2 13 -7 20 -14 14 -15z"/>
</g>
</svg>
