<?xml version="1.0" standalone="no"?>
<!DOCTYPE svg PUBLIC "-//W3C//DTD SVG 20010904//EN"
 "http://www.w3.org/TR/2001/REC-SVG-20010904/DTD/svg10.dtd">
<svg version="1.0" xmlns="http://www.w3.org/2000/svg"
 width="48.000000pt" height="48.000000pt" viewBox="0 0 48.000000 48.000000"
 preserveAspectRatio="xMidYMid meet">

<g transform="translate(0.000000,48.000000) scale(0.100000,-0.100000)"
fill="#000000" stroke="none">
<path d="M125 470 c-4 -6 -5 -27 -3 -48 l3 -37 -57 -3 -58 -3 0 -184 c0 -141
3 -185 13 -185 9 0 12 41 12 172 l0 173 208 3 207 2 0 -175 c0 -149 2 -175 15
-175 13 0 15 27 15 185 l0 185 -60 0 -60 0 0 50 0 50 -114 0 c-68 0 -117 -4
-121 -10z m55 -51 c0 -16 -4 -29 -10 -29 -5 0 -10 16 -10 36 0 21 4 33 10 29
6 -3 10 -19 10 -36z m100 14 c0 -22 19 -43 21 -24 1 6 3 16 4 21 1 6 3 15 4
21 2 20 21 -3 21 -26 0 -33 -33 -51 -54 -29 -9 8 -16 22 -16 30 0 10 -8 14
-22 12 -30 -4 -34 -26 -7 -36 14 -6 18 -11 11 -16 -17 -10 -52 12 -52 34 0 24
26 39 62 37 22 -2 28 -7 28 -24z"/>
<path d="M57 343 c-4 -3 -7 -78 -7 -165 l0 -158 90 0 90 0 0 165 0 165 -83 0
c-46 0 -87 -3 -90 -7z m103 -113 c0 -15 7 -20 25 -20 16 0 25 -6 25 -15 0 -9
-9 -15 -25 -15 -18 0 -25 -5 -25 -20 0 -11 -7 -23 -15 -27 -19 -7 -26 -1 -29
23 -2 10 -13 21 -25 24 -29 7 -28 23 1 31 14 3 22 12 22 22 -1 12 6 17 22 17
17 0 24 -6 24 -20z"/>
<path d="M257 343 c-4 -3 -7 -78 -7 -165 l0 -158 90 0 90 0 0 165 0 165 -83 0
c-46 0 -87 -3 -90 -7z m113 -113 c0 -15 7 -20 25 -20 16 0 25 -6 25 -15 0 -8
-9 -15 -20 -15 -13 0 -24 -10 -30 -25 -12 -31 -38 -33 -42 -3 -2 15 -11 24
-25 26 -32 5 -30 32 2 32 18 0 25 5 25 20 0 13 7 20 20 20 13 0 20 -7 20 -20z"/>
</g>
</svg>
