<?xml version="1.0" standalone="no"?>
<!DOCTYPE svg PUBLIC "-//W3C//DTD SVG 20010904//EN"
 "http://www.w3.org/TR/2001/REC-SVG-20010904/DTD/svg10.dtd">
<svg version="1.0" xmlns="http://www.w3.org/2000/svg"
 width="48.000000pt" height="48.000000pt" viewBox="0 0 48.000000 48.000000"
 preserveAspectRatio="xMidYMid meet">

<g transform="translate(0.000000,48.000000) scale(0.100000,-0.100000)"
fill="#000000" stroke="none">
<path d="M25 455 c-38 -37 -32 -76 16 -100 70 -37 133 49 76 103 -30 29 -62
28 -92 -3z m83 -7 c31 -31 4 -88 -42 -88 -20 0 -46 28 -46 50 0 40 60 66 88
38z"/>
<path d="M60 432 c0 -24 11 -34 27 -24 6 5 4 14 -8 26 -19 19 -19 19 -19 -2z"/>
<path d="M262 467 c-13 -15 1 -42 17 -33 6 4 11 14 11 22 0 8 5 14 11 14 6 0
9 -6 6 -14 -7 -18 24 -31 34 -14 12 18 -10 38 -41 38 -15 0 -32 -6 -38 -13z"/>
<path d="M277 423 c-13 -12 -7 -41 10 -47 21 -8 48 17 40 38 -6 16 -38 22 -50
9z"/>
<path d="M225 309 c-9 -28 -15 -53 -12 -56 9 -9 27 7 27 25 0 9 5 24 11 32 8
11 9 5 4 -22 l-6 -38 51 0 51 0 -6 38 -5 37 13 -34 c7 -19 19 -37 25 -39 16
-5 15 5 -4 61 l-16 47 -58 0 -58 0 -17 -51z"/>
<path d="M10 276 c-7 -9 -10 -59 -8 -142 3 -125 4 -129 25 -132 20 -3 23 1 23
32 l0 36 195 0 195 0 0 -35 c0 -28 4 -35 20 -35 19 0 20 7 20 120 0 113 -1
120 -20 120 -18 0 -20 -7 -20 -60 l0 -60 -195 0 -195 0 0 79 c0 59 -4 80 -14
84 -8 3 -20 0 -26 -7z"/>
<path d="M80 225 c-10 -12 -10 -18 0 -30 20 -25 55 -15 55 15 0 30 -35 40 -55
15z"/>
<path d="M160 185 l0 -45 131 0 130 0 -3 43 -3 42 -127 3 -128 3 0 -46z"/>
<path d="M67 164 c-16 -16 -5 -24 34 -24 28 0 39 4 37 13 -5 13 -60 22 -71 11z"/>
</g>
</svg>
