<?xml version="1.0" standalone="no"?>
<!DOCTYPE svg PUBLIC "-//W3C//DTD SVG 20010904//EN"
 "http://www.w3.org/TR/2001/REC-SVG-20010904/DTD/svg10.dtd">
<svg version="1.0" xmlns="http://www.w3.org/2000/svg"
 width="48.000000pt" height="48.000000pt" viewBox="0 0 48.000000 48.000000"
 preserveAspectRatio="xMidYMid meet">

<g transform="translate(0.000000,48.000000) scale(0.100000,-0.100000)"
fill="#000000" stroke="none">
<path d="M292 469 c2 -7 -7 -18 -19 -24 -30 -16 -160 -176 -168 -207 -5 -21
-2 -27 14 -33 13 -4 27 -1 37 9 8 9 19 16 24 16 5 0 18 13 30 30 18 25 19 32
8 50 -18 29 0 53 49 65 48 12 74 31 66 51 -3 8 4 17 18 22 26 10 18 17 -29 27
-24 5 -32 3 -30 -6z"/>
<path d="M239 351 c-23 -19 -24 -19 -5 -40 34 -38 136 -23 136 19 0 41 -89 55
-131 21z m96 -21 c0 -18 -52 -27 -67 -12 -17 17 2 33 35 30 20 -2 32 -8 32
-18z"/>
<path d="M382 310 c-7 -11 -19 -20 -27 -20 -21 0 -19 -9 10 -36 35 -32 33 -74
-5 -107 -18 -16 -42 -27 -59 -27 -31 0 -51 -27 -27 -36 29 -11 71 0 70 19 -2
13 3 16 17 12 41 -13 107 42 116 98 4 30 0 40 -32 76 -21 22 -40 41 -44 41 -3
0 -12 -9 -19 -20z m-52 -210 c0 -5 -11 -10 -25 -10 -14 0 -25 5 -25 10 0 6 11
10 25 10 14 0 25 -4 25 -10z"/>
<path d="M6 191 c-3 -5 16 -14 42 -20 105 -26 122 -32 118 -40 -3 -5 -36 0
-73 10 -36 10 -69 16 -72 13 -10 -9 23 -23 69 -30 25 -3 50 -12 56 -20 6 -8
32 -17 58 -20 38 -6 46 -4 46 10 0 9 -7 16 -15 16 -13 0 -14 4 -5 20 9 17 7
20 -17 26 -16 3 -60 14 -99 25 -78 21 -100 23 -108 10z"/>
<path d="M350 80 c-8 -5 -31 -10 -50 -10 -19 0 -46 -7 -60 -15 -17 -10 -57
-14 -122 -15 -91 0 -98 -1 -98 -20 0 -19 7 -20 205 -20 191 0 205 1 205 18 0
10 -13 30 -28 45 -32 30 -31 30 -52 17z"/>
</g>
</svg>
