<?xml version="1.0" standalone="no"?>
<!DOCTYPE svg PUBLIC "-//W3C//DTD SVG 20010904//EN"
 "http://www.w3.org/TR/2001/REC-SVG-20010904/DTD/svg10.dtd">
<svg version="1.0" xmlns="http://www.w3.org/2000/svg"
 width="48.000000pt" height="48.000000pt" viewBox="0 0 48.000000 48.000000"
 preserveAspectRatio="xMidYMid meet">

<g transform="translate(0.000000,48.000000) scale(0.100000,-0.100000)"
fill="#000000" stroke="none">
<path d="M179 466 c-92 -24 -146 -87 -135 -155 4 -27 1 -40 -16 -58 -14 -15
-18 -28 -13 -40 4 -10 9 -28 11 -40 7 -55 27 -78 79 -88 63 -13 72 -19 80 -55
l7 -30 75 0 c74 0 75 1 68 23 -4 12 -9 65 -10 119 -3 102 -15 129 -60 136 -11
2 -25 10 -32 19 -8 10 -20 13 -35 10 -50 -13 -117 16 -118 50 0 15 70 84 80
78 5 -3 10 0 12 6 3 8 33 13 79 15 82 2 110 -8 165 -63 28 -26 32 -35 25 -60
-4 -15 -17 -33 -29 -39 -12 -6 -19 -13 -16 -16 3 -3 -7 -15 -23 -27 -23 -19
-28 -30 -30 -84 -2 -34 2 -84 9 -112 12 -48 15 -50 51 -53 20 -2 37 -1 37 1 0
3 -7 21 -15 40 -21 51 -19 125 4 167 49 88 54 102 42 141 -15 49 -68 94 -133
114 -61 18 -96 18 -159 1z"/>
</g>
</svg>
