<?xml version="1.0" standalone="no"?>
<!DOCTYPE svg PUBLIC "-//W3C//DTD SVG 20010904//EN"
 "http://www.w3.org/TR/2001/REC-SVG-20010904/DTD/svg10.dtd">
<svg version="1.0" xmlns="http://www.w3.org/2000/svg"
 width="48.000000pt" height="48.000000pt" viewBox="0 0 48.000000 48.000000"
 preserveAspectRatio="xMidYMid meet">

<g transform="translate(0.000000,48.000000) scale(0.100000,-0.100000)"
fill="#000000" stroke="none">
<path d="M242 450 c0 -14 2 -19 5 -12 2 6 2 18 0 25 -3 6 -5 1 -5 -13z"/>
<path d="M155 400 c-65 -32 -115 -129 -67 -131 13 0 12 -2 -6 -9 -18 -8 -21
-15 -16 -37 15 -65 63 -115 125 -133 25 -7 29 -6 29 11 0 10 5 19 10 19 6 0
10 -9 10 -20 0 -17 4 -19 28 -14 45 11 60 23 56 41 -6 22 30 63 55 63 17 0 31
18 31 41 0 5 -10 9 -22 10 l-23 0 24 10 c19 8 22 14 16 37 -12 50 -47 94 -89
113 -53 24 -64 24 -69 -3 l-4 -23 -2 23 c-1 28 -31 29 -86 2z m28 -55 c14 1
32 7 40 14 12 10 23 8 53 -9 45 -24 61 -25 66 -6 3 12 5 12 16 0 11 -12 10
-14 -3 -14 -18 0 -20 -32 -3 -59 11 -18 9 -29 -11 -61 -5 -8 -12 -23 -15 -32
-3 -11 -15 -18 -31 -18 -14 0 -25 -4 -25 -9 0 -19 -41 -23 -59 -7 -23 21 -71
21 -71 0 0 -14 -2 -14 -15 0 -8 8 -15 17 -15 20 0 3 7 6 15 6 18 0 19 29 4 64
-9 20 -9 29 2 42 20 24 22 63 5 70 -12 5 -13 9 -3 19 10 10 13 10 18 -4 4 -10
17 -16 32 -16z"/>
<path d="M223 331 c6 -25 1 -26 -19 -6 -19 18 -44 9 -44 -17 0 -11 -7 -26 -15
-34 -15 -16 -10 -44 9 -44 7 0 17 5 24 12 9 9 12 8 12 -4 0 -9 6 -19 13 -21 6
-3 -1 -4 -18 -4 -24 2 -30 -2 -30 -18 0 -26 33 -32 51 -8 13 17 14 16 8 -9 -5
-25 -3 -28 19 -28 14 0 29 5 32 10 3 6 15 10 26 10 28 0 36 30 13 48 -18 14
-18 14 7 8 19 -4 29 -1 33 10 8 20 -1 34 -21 34 -12 0 -13 3 -4 13 8 10 7 18
-3 32 -15 21 -33 14 -47 -19 -7 -17 -8 -15 -6 14 2 30 -1 35 -22 38 -20 3 -23
0 -18 -17z m72 -61 c3 -5 1 -10 -4 -10 -6 0 -11 5 -11 10 0 6 2 10 4 10 3 0 8
-4 11 -10z"/>
<path d="M23 263 c9 -2 23 -2 30 0 6 3 -1 5 -18 5 -17 0 -22 -2 -12 -5z"/>
<path d="M433 243 c9 -2 23 -2 30 0 6 3 -1 5 -18 5 -16 0 -22 -2 -12 -5z"/>
<path d="M370 164 c0 -10 7 -14 22 -12 32 5 35 28 4 28 -17 0 -26 -5 -26 -16z"/>
<path d="M337 146 c-3 -8 0 -22 7 -31 11 -15 13 -15 25 -1 11 13 11 19 1 31
-16 19 -26 19 -33 1z"/>
<path d="M367 92 c-53 -53 -65 -70 -55 -80 7 -7 15 -12 19 -12 4 0 32 29 63
65 42 47 55 69 49 80 -7 12 -22 1 -76 -53z"/>
<path d="M222 50 c0 -14 2 -19 5 -12 2 6 2 18 0 25 -3 6 -5 1 -5 -13z"/>
<path d="M403 54 c-8 -21 30 -59 52 -51 14 6 13 10 -6 37 -26 34 -37 37 -46
14z"/>
</g>
</svg>
