<?xml version="1.0" standalone="no"?>
<!DOCTYPE svg PUBLIC "-//W3C//DTD SVG 20010904//EN"
 "http://www.w3.org/TR/2001/REC-SVG-20010904/DTD/svg10.dtd">
<svg version="1.0" xmlns="http://www.w3.org/2000/svg"
 width="48.000000pt" height="48.000000pt" viewBox="0 0 48.000000 48.000000"
 preserveAspectRatio="xMidYMid meet">

<g transform="translate(0.000000,48.000000) scale(0.100000,-0.100000)"
fill="#000000" stroke="none">
<path d="M131 387 c-1 -16 5 -30 14 -33 22 -9 18 -41 -5 -47 -33 -9 -27 -33
23 -88 22 -25 22 -39 -2 -39 -29 0 -62 -32 -71 -70 l-9 -35 2 38 c2 20 -1 37
-5 37 -4 0 -8 -15 -8 -34 0 -28 -4 -35 -22 -38 -13 -2 -23 -10 -24 -18 0 -9 1
-10 3 -2 3 8 39 13 126 14 108 2 112 3 35 5 -86 4 -88 4 -88 28 0 14 9 34 20
45 20 20 28 22 95 22 67 0 75 -2 95 -22 25 -25 26 -67 3 -73 -10 -3 2 -5 27
-5 25 0 39 2 33 5 -7 2 -13 20 -13 39 0 19 -4 34 -8 34 -4 0 -7 -17 -5 -37 l2
-38 -8 32 c-5 18 -14 40 -21 48 -15 19 -73 35 -100 28 -11 -3 -20 0 -20 6 0 6
11 11 25 11 23 0 37 10 73 55 17 20 8 67 -11 59 -9 -3 -12 -16 -9 -35 6 -40
-21 -69 -63 -69 -31 0 -65 25 -65 47 0 6 -6 13 -12 16 -9 3 -6 10 10 22 12 9
22 23 22 31 0 17 85 20 93 4 3 -6 4 -5 3 2 -1 7 -13 14 -27 16 -13 2 -30 11
-38 20 -13 16 -13 16 -8 0 10 -28 -11 -21 -28 10 -15 26 -16 26 -9 2 4 -17 3
-22 -4 -15 -5 6 -12 19 -15 30 -3 15 -5 13 -6 -8z"/>
<path d="M180 401 c0 -4 17 -8 37 -9 43 -3 63 -17 63 -43 0 -11 4 -19 9 -19
12 0 1 47 -14 60 -16 13 -95 22 -95 11z"/>
<path d="M358 283 c-14 -3 -18 -15 -18 -48 0 -36 5 -47 28 -63 21 -16 32 -18
47 -10 32 17 45 39 45 79 0 28 -5 38 -20 42 -11 3 -23 1 -26 -4 -3 -5 4 -9 15
-9 17 0 21 -6 21 -34 0 -57 -49 -86 -84 -50 -21 20 -22 84 -1 84 8 0 15 5 15
10 0 6 -1 9 -2 9 -2 -1 -11 -3 -20 -6z"/>
<path d="M256 134 c-4 -9 0 -24 9 -34 8 -9 15 -26 15 -38 0 -21 -4 -22 -117
-24 l-118 -2 135 -8 c188 -10 180 -10 230 -1 36 6 45 12 45 28 0 14 -7 20 -23
21 -18 1 -19 1 -2 -3 29 -6 25 -33 -5 -33 -17 0 -25 6 -25 18 -1 16 -1 16 -11
0 -7 -13 -22 -18 -50 -18 -46 0 -59 18 -39 55 7 13 10 31 7 39 -8 21 -43 20
-51 0z m44 -14 c0 -11 -6 -20 -14 -20 -18 0 -29 16 -21 30 11 18 35 11 35 -10z
m53 -97 c-7 -2 -19 -2 -25 0 -7 3 -2 5 12 5 14 0 19 -2 13 -5z"/>
<path d="M275 120 c3 -5 8 -10 11 -10 2 0 4 5 4 10 0 6 -5 10 -11 10 -5 0 -7
-4 -4 -10z"/>
<path d="M392 100 c0 -14 2 -19 5 -12 2 6 2 18 0 25 -3 6 -5 1 -5 -13z"/>
</g>
</svg>
