<?xml version="1.0" standalone="no"?>
<!DOCTYPE svg PUBLIC "-//W3C//DTD SVG 20010904//EN"
 "http://www.w3.org/TR/2001/REC-SVG-20010904/DTD/svg10.dtd">
<svg version="1.0" xmlns="http://www.w3.org/2000/svg"
 width="48.000000pt" height="48.000000pt" viewBox="0 0 48.000000 48.000000"
 preserveAspectRatio="xMidYMid meet">

<g transform="translate(0.000000,48.000000) scale(0.100000,-0.100000)"
fill="#000000" stroke="none">
<path d="M244 461 c-38 -23 -74 -72 -74 -100 0 -18 -3 -19 -28 -10 -70 24
-146 -51 -141 -138 6 -105 89 -181 220 -203 98 -15 105 -14 149 32 61 63 102
157 107 243 4 65 2 74 -26 118 -48 74 -139 100 -207 58z m50 -105 c37 -16 76
-60 76 -87 0 -11 10 -29 22 -41 l21 -21 -20 -17 c-11 -9 -24 -26 -27 -38 -4
-12 -21 -31 -37 -43 -33 -23 -20 -25 -176 23 -18 5 -33 13 -33 17 0 4 -9 18
-20 31 -23 27 -26 48 -6 56 8 3 17 17 21 32 7 28 32 62 47 62 4 0 8 -9 8 -20
0 -11 11 -27 25 -36 33 -21 75 -12 75 17 0 15 -5 19 -15 15 -24 -9 -45 4 -45
29 0 36 31 43 84 21z m-219 -206 c5 -8 1 -8 -12 1 -14 8 -18 19 -15 38 l5 26
8 -27 c4 -14 10 -32 14 -38z m26 -37 c13 -16 12 -17 -3 -4 -10 7 -18 15 -18
17 0 8 8 3 21 -13z m75 -41 c-6 -5 -56 21 -56 29 0 5 13 0 29 -9 16 -9 28 -18
27 -20z"/>
<path d="M163 233 c-25 -9 -13 -30 17 -31 17 0 30 3 30 8 0 13 -32 28 -47 23z"/>
<path d="M292 228 c-18 -18 -16 -44 2 -29 7 6 21 9 30 5 22 -9 20 13 -2 25
-13 7 -23 6 -30 -1z"/>
<path d="M205 142 c3 -8 5 -16 5 -18 0 -8 42 -4 61 6 31 17 22 27 -26 26 -33
-1 -44 -5 -40 -14z"/>
</g>
</svg>
