<?xml version="1.0" standalone="no"?>
<!DOCTYPE svg PUBLIC "-//W3C//DTD SVG 20010904//EN"
 "http://www.w3.org/TR/2001/REC-SVG-20010904/DTD/svg10.dtd">
<svg version="1.0" xmlns="http://www.w3.org/2000/svg"
 width="48.000000pt" height="48.000000pt" viewBox="0 0 48.000000 48.000000"
 preserveAspectRatio="xMidYMid meet">

<g transform="translate(0.000000,48.000000) scale(0.100000,-0.100000)"
fill="#000000" stroke="none">
<path d="M218 464 c-5 -7 -9 -28 -10 -48 -2 -29 -6 -35 -20 -30 -14 4 -24 -10
-48 -62 -38 -85 -40 -140 -6 -156 14 -6 31 -8 39 -5 18 7 80 155 72 174 -3 9
3 22 12 29 17 12 17 13 1 14 -9 0 -20 -5 -24 -12 -5 -7 -10 -3 -16 12 -6 15
-5 26 2 30 7 4 10 20 8 36 -2 17 -6 24 -10 18z m20 -150 c-9 -8 -58 41 -58 58
0 7 14 -2 32 -19 18 -18 29 -35 26 -39z m-25 -20 c-3 -8 -9 -11 -14 -8 -5 3
-6 -2 -3 -10 3 -9 1 -16 -6 -16 -6 0 -8 -4 -5 -10 3 -5 1 -10 -5 -10 -7 0 -10
-6 -7 -14 8 -21 -17 -50 -37 -43 -22 9 -20 50 6 119 l23 57 27 -25 c14 -15 24
-33 21 -40z"/>
<path d="M299 345 c-1 -3 -2 -9 -3 -13 -2 -12 -33 -42 -38 -37 -7 7 -3 -38 6
-62 4 -13 12 -23 17 -23 6 0 7 -5 4 -11 -5 -7 -15 -3 -29 10 -30 29 -36 27
-36 -13 0 -26 5 -36 21 -41 28 -9 38 3 16 19 -9 7 -17 16 -17 20 0 4 14 -4 31
-18 38 -33 42 -32 81 3 28 24 30 31 19 44 -7 9 -9 22 -5 28 5 8 3 9 -6 4 -10
-6 -12 -4 -7 9 4 9 3 15 -2 12 -5 -3 -12 1 -15 10 -4 9 -2 13 5 8 8 -4 7 0 0
15 -7 11 -19 21 -29 21 -15 0 -15 2 -2 10 10 6 11 10 3 10 -7 0 -14 -2 -14 -5z"/>
<path d="M373 177 c-13 -10 -20 -23 -17 -29 4 -6 -2 -8 -17 -4 -18 4 -16 2 6
-9 17 -8 38 -14 48 -15 19 0 77 51 77 67 0 17 -73 9 -97 -10z m32 -17 c-28
-12 -47 -12 -40 0 3 6 18 10 33 9 24 0 25 -1 7 -9z"/>
<path d="M80 135 c-25 -8 -51 -13 -57 -10 -43 15 34 -68 86 -94 79 -40 127
-34 159 19 l19 30 13 -26 c19 -34 57 -53 97 -47 35 6 68 33 40 33 -9 0 -27 14
-39 31 -35 47 -116 82 -102 44 4 -9 0 -15 -9 -15 -8 0 -20 -7 -27 -15 -14 -16
-96 -21 -119 -6 -8 5 8 10 47 13 33 2 68 11 77 18 16 13 15 15 -16 23 -62 16
-123 17 -169 2z m251 -62 c13 -16 12 -17 -3 -4 -17 13 -22 21 -14 21 2 0 10
-8 17 -17z"/>
</g>
</svg>
