<?xml version="1.0" standalone="no"?>
<!DOCTYPE svg PUBLIC "-//W3C//DTD SVG 20010904//EN"
 "http://www.w3.org/TR/2001/REC-SVG-20010904/DTD/svg10.dtd">
<svg version="1.0" xmlns="http://www.w3.org/2000/svg"
 width="48.000000pt" height="48.000000pt" viewBox="0 0 48.000000 48.000000"
 preserveAspectRatio="xMidYMid meet">

<g transform="translate(0.000000,48.000000) scale(0.100000,-0.100000)"
fill="#000000" stroke="none">
<path d="M140 445 c-23 -25 -23 -27 -9 -68 15 -40 17 -42 55 -39 115 9 128
132 14 132 -26 0 -43 -7 -60 -25z m112 -2 c22 -20 23 -56 3 -73 -8 -7 -33 -14
-56 -15 -31 -2 -43 3 -54 19 -20 28 -19 42 5 66 24 24 77 26 102 3z"/>
<path d="M50 355 c0 -31 26 -43 46 -23 20 20 7 48 -22 48 -19 0 -24 -5 -24
-25z m44 7 c8 -13 -11 -35 -23 -28 -16 10 -14 36 3 36 8 0 17 -4 20 -8z"/>
<path d="M376 364 c-9 -22 17 -49 39 -40 10 3 15 15 13 28 -4 29 -42 37 -52
12z m44 -8 c0 -20 -19 -31 -32 -18 -6 6 -7 15 -4 21 10 16 36 13 36 -3z"/>
<path d="M7 313 c-9 -8 -9 -166 -1 -187 3 -9 15 -16 25 -16 22 0 34 -37 25
-80 l-5 -30 188 0 188 0 -5 30 c-6 45 5 80 27 80 10 0 22 7 25 16 9 24 7 182
-3 188 -4 3 -28 2 -52 -2 -42 -7 -44 -9 -49 -47 -6 -51 -39 -61 -59 -19 -6 15
-14 24 -17 21 -3 -3 -1 -14 5 -25 6 -11 8 -28 5 -37 -4 -9 -2 -20 5 -24 8 -6
7 -28 -7 -87 l-19 -79 -43 0 -43 0 -19 79 c-14 59 -15 81 -7 87 20 12 2 37
-28 41 -25 3 -28 8 -31 41 -2 21 -9 40 -15 42 -31 9 -84 15 -90 8z m35 -160
c6 -7 23 -13 39 -13 15 0 31 -5 34 -11 5 -7 -11 -9 -47 -7 l-53 3 -3 79 c-2
44 1 86 5 95 5 10 9 -14 11 -59 2 -41 8 -80 14 -87z m426 56 l-3 -84 -53 -3
c-36 -2 -52 0 -47 7 3 6 19 11 34 11 42 0 51 17 51 99 0 52 3 72 10 65 7 -7
10 -46 8 -95z m-368 46 c4 -33 9 -41 30 -43 47 -7 45 -22 -3 -22 -46 0 -47 1
-47 30 0 17 -4 30 -9 30 -10 0 -2 -50 12 -67 5 -7 22 -13 37 -13 26 0 29 -5
44 -65 19 -77 20 -98 4 -93 -7 3 -19 33 -28 69 -16 63 -16 64 -53 67 l-37 3 0
75 c0 72 1 75 23 72 18 -2 23 -11 27 -43z m330 -29 l0 -75 -37 -3 c-37 -3 -37
-4 -53 -67 -9 -36 -21 -66 -28 -69 -16 -5 -15 16 4 93 15 60 18 65 44 65 15 0
32 6 37 13 14 17 22 67 12 67 -5 0 -9 -13 -9 -30 0 -29 -1 -30 -47 -30 -48 0
-50 15 -3 22 20 2 26 10 28 33 4 46 10 55 32 55 18 0 20 -6 20 -74z m-336
-134 c-1 -7 -2 -28 -2 -48 -3 -52 -22 -32 -22 22 0 32 4 44 13 42 6 -3 12 -10
11 -16z m42 -40 c5 -35 4 -42 -10 -42 -22 0 -30 23 -21 66 8 45 22 34 31 -24z
m242 -12 c-2 -15 -10 -26 -22 -28 -17 -4 -18 0 -12 39 4 23 10 47 13 52 9 15
25 -32 21 -63z m32 26 c0 -58 -17 -68 -22 -13 -5 45 -2 57 13 57 5 0 9 -20 9
-44z"/>
</g>
</svg>
