<?xml version="1.0" standalone="no"?>
<!DOCTYPE svg PUBLIC "-//W3C//DTD SVG 20010904//EN"
 "http://www.w3.org/TR/2001/REC-SVG-20010904/DTD/svg10.dtd">
<svg version="1.0" xmlns="http://www.w3.org/2000/svg"
 width="48.000000pt" height="48.000000pt" viewBox="0 0 48.000000 48.000000"
 preserveAspectRatio="xMidYMid meet">

<g transform="translate(0.000000,48.000000) scale(0.100000,-0.100000)"
fill="#000000" stroke="none">
<path d="M162 458 c-5 -7 -13 -39 -17 -70 -6 -47 -4 -63 10 -85 22 -35 55 -62
76 -63 23 0 67 36 84 70 17 33 10 124 -12 146 -18 18 -126 19 -141 2z m138
-33 c0 -24 -2 -25 -70 -25 -61 0 -70 2 -70 18 0 29 8 32 77 32 61 0 63 -1 63
-25z m4 -51 c17 -45 -6 -73 -34 -39 -16 20 -54 19 -75 -1 -29 -29 -55 -2 -39
40 9 23 139 23 148 0z m-44 -60 c0 -11 -8 -14 -27 -12 -39 4 -42 28 -4 28 21
0 31 -5 31 -16z m-65 -14 c9 -14 72 -12 78 3 2 6 8 8 13 4 9 -8 -39 -57 -55
-57 -4 0 -20 14 -36 30 -16 17 -24 30 -17 30 6 0 14 -4 17 -10z"/>
<path d="M405 330 c-15 -23 -29 -48 -32 -57 -4 -10 -13 -13 -30 -8 -18 4 -33
-2 -60 -25 -41 -37 -74 -35 -110 5 -12 14 -29 25 -37 25 -23 0 -77 -51 -92
-87 -15 -35 -19 -130 -6 -151 7 -9 53 -12 198 -10 l189 3 3 68 c2 45 -2 78
-12 97 -11 24 -12 35 -2 65 7 20 18 41 24 47 14 14 16 55 2 63 -5 3 -21 -13
-35 -35z m18 -20 c-9 -16 -21 -30 -25 -30 -4 0 1 13 10 30 9 16 21 30 25 30 5
0 0 -13 -10 -30z m-23 -56 c0 -15 -84 -144 -92 -142 -15 5 -11 15 32 83 34 56
60 81 60 59z m-228 -29 c16 -14 42 -25 58 -25 16 0 42 11 58 25 26 22 62 34
62 20 0 -2 -18 -32 -39 -67 -40 -62 -40 -62 -19 -77 20 -13 23 -12 44 15 13
16 29 41 35 56 15 36 25 35 38 -3 12 -35 14 -82 5 -116 -6 -23 -8 -23 -184
-23 l-177 0 -7 40 c-9 58 11 126 46 155 37 31 43 31 80 0z"/>
</g>
</svg>
